#!OML:ASF F:\VICON\USERDATA\INSTALL\rory3\rory3.ASF
:FULLY-SPECIFIED
:DEGREES
1970
root 5.0544 17.1842 -1.80311 -20.8525 -20.6962 -2.57441
lowerback -1.32884 0.283987 -5.02322
upperback 0.307385 0.47061 -0.865622
thorax 1.02858 0.20528 1.9358
lowerneck 1.24646 -0.157795 -7.00837
upperneck 24.0796 -1.78826 8.54639
head 7.23709 -0.892776 3.9117
rclavicle -2.70347e-014 1.35174e-014
rhumerus 13.2702 20.9035 -60.5505
rradius 36.8978
rwrist 13.9772
rhand -22.3221 -3.54392
rfingers 7.12502
rthumb 4.09773 -33.4843
lclavicle -2.70347e-014 1.35174e-014
lhumerus -13.4148 -34.0351 90.578
lradius 60.644
lwrist 1.52198
lhand -10.6569 27.5116
lfingers 7.12502
lthumb 15.351 56.9217
rfemur -10.6379 5.61409 6.62276
rtibia 69.2453
rfoot -14.3241 -17.0999
rtoes -1.06127
lfemur 11.1494 4.8995 -13.4119
ltibia 50.0267
lfoot -30.0133 -2.30981
ltoes -5.00354
1971
root 5.03382 17.1313 -1.76857 -21.0889 -20.4508 -2.32542
lowerback -1.36525 0.263256 -5.29806
upperback 0.279487 0.449582 -0.964526
thorax 1.02074 0.193825 1.98744
lowerneck 1.30632 -0.132441 -7.06288
upperneck 24.0509 -1.77105 8.64469
head 7.21554 -0.882689 3.95458
rclavicle -7.55382e-015 1.35174e-014
rhumerus 13.6376 21.0548 -60.2258
rradius 37.117
rwrist 13.8853
rhand -22.819 -4.26674
rfingers 7.12502
rthumb 3.61793 -34.2158
lclavicle -7.55382e-015 1.35174e-014
lhumerus -13.2353 -34.1254 90.5418
lradius 61.5326
lwrist 1.82061
lhand -10.5152 27.4611
lfingers 7.12502
lthumb 15.4875 56.8608
rfemur -10.9043 5.74033 6.2653
rtibia 68.9637
rfoot -14.5636 -17.5741
rtoes -1.13501
lfemur 11.1489 4.93366 -13.5616
ltibia 50.5752
lfoot -30.3758 -2.56997
ltoes -5.06047
1972
root 5.01262 17.082 -1.73148 -21.4704 -20.2888 -1.96972
lowerback -1.31533 0.251017 -5.67205
upperback 0.293637 0.43701 -1.03608
thorax 1.00635 0.185368 2.12223
lowerneck 1.22106 -0.100253 -7.08416
upperneck 24.1266 -1.71637 8.61155
head 7.25108 -0.858606 3.95213
rclavicle 6.12257e-014 5.56597e-015
rhumerus 14.0852 21.4036 -59.8107
rradius 37.363
rwrist 13.7161
rhand -22.8612 -4.59439
rfingers 7.12502
rthumb 3.57712 -34.5441
lclavicle 6.12257e-014 5.56597e-015
lhumerus -13.1283 -33.8273 90.6642
lradius 62.2858
lwrist 2.04378
lhand -10.4283 27.0605
lfingers 7.12502
lthumb 15.5712 56.4537
rfemur -11.0921 6.03682 5.86034
rtibia 68.6004
rfoot -14.3204 -18.2016
rtoes 3.74988
lfemur 11.354 4.95599 -13.8539
ltibia 51.0276
lfoot -30.773 -2.77351
ltoes -4.7003
1973
root 4.99121 17.0259 -1.69752 -21.645 -20.2458 -1.88099
lowerback -1.39459 0.251184 -5.6715
upperback 0.321202 0.444423 -1.08368
thorax 1.07907 0.186783 2.07368
lowerneck 1.03895 -0.120385 -7.09227
upperneck 24.2237 -1.7191 8.52158
head 7.31608 -0.863465 3.92568
rclavicle -4.09496e-014 2.94201e-014
rhumerus 14.5752 21.2554 -59.6925
rradius 37.4541
rwrist 13.9212
rhand -22.7625 -4.75622
rfingers 7.12502
rthumb 3.67244 -34.7043
lclavicle -4.09496e-014 2.94201e-014
lhumerus -13.3242 -32.8553 91.0004
lradius 62.997
lwrist 1.68199
lhand -10.219 26.3675
lfingers 7.12502
lthumb 15.7727 55.7449
rfemur -11.3125 6.43393 5.76969
rtibia 68.1692
rfoot -16.1609 -17.9332
rtoes 1.93838
lfemur 11.4699 5.0186 -13.8179
ltibia 51.4615
lfoot -31.2002 -3.10358
ltoes -3.9731
1974
root 4.96563 16.9613 -1.66669 -21.6955 -20.161 -1.78408
lowerback -1.5726 0.287569 -5.64852
upperback 0.298274 0.505253 -1.20843
thorax 1.15197 0.216052 1.93502
lowerneck 0.963112 -0.154376 -6.98439
upperneck 24.2788 -1.7696 8.51197
head 7.35138 -0.877209 3.90217
rclavicle 4.29375e-014 -1.51076e-014
rhumerus 14.9198 20.6602 -59.8869
rradius 37.3651
rwrist 14.4823
rhand -22.8594 -4.75845
rfingers 7.12502
rthumb 3.57884 -34.7082
lclavicle 4.29375e-014 -1.51076e-014
lhumerus -13.1277 -33.3562 90.8569
lradius 63.9871
lwrist 2.32604
lhand -10.0803 26.4618
lfingers 7.12502
lthumb 15.9063 55.8286
rfemur -11.589 6.82611 5.62542
rtibia 67.7086
rfoot -17.6969 -17.4566
rtoes 1.79313
lfemur 11.4303 5.07086 -13.8022
ltibia 51.8983
lfoot -31.7141 -3.37027
ltoes -3.4847
1975
root 4.93781 16.906 -1.63612 -21.9213 -19.9194 -1.34074
lowerback -1.60097 0.312689 -6.11742
upperback 0.245761 0.548539 -1.37011
thorax 1.10822 0.236688 2.03129
lowerneck 0.974043 -0.174214 -6.9053
upperneck 24.3092 -1.80949 8.53443
head 7.36232 -0.887814 3.89439
rclavicle -1.82882e-014 9.54166e-015
rhumerus 15.194 20.1748 -60.0384
rradius 37.2894
rwrist 15.0737
rhand -22.9826 -4.91314
rfingers 7.12502
rthumb 3.45988 -34.8648
lclavicle -1.82882e-014 9.54166e-015
lhumerus -13.1899 -33.4746 90.988
lradius 64.7844
lwrist 2.64541
lhand -9.89469 26.3377
lfingers 7.12502
lthumb 16.0851 55.6901
rfemur -11.8307 7.18911 5.08512
rtibia 67.1975
rfoot -18.5385 -17.491
rtoes 1.59879
lfemur 11.461 5.07087 -14.2441
ltibia 52.3033
lfoot -32.308 -3.22999
ltoes -3.53534
1976
root 4.90982 16.8581 -1.59949 -22.1252 -19.7206 -1.00461
lowerback -1.65827 0.323604 -6.46346
upperback 0.213564 0.573382 -1.45848
thorax 1.10308 0.247603 2.13409
lowerneck 0.889501 -0.195561 -6.95724
upperneck 24.465 -1.84692 8.56321
head 7.43271 -0.906403 3.91495
rclavicle -3.22031e-014 4.85035e-014
rhumerus 15.4031 20.2912 -59.6972
rradius 37.5534
rwrist 15.013
rhand -23.1613 -5.06933
rfingers 7.12502
rthumb 3.28732 -35.0237
lclavicle -3.22031e-014 4.85035e-014
lhumerus -13.2192 -33.5525 91.1306
lradius 65.6065
lwrist 3.06175
lhand -9.8008 26.3696
lfingers 7.12502
lthumb 16.1755 55.7147
rfemur -12.0508 7.60222 4.70742
rtibia 66.6246
rfoot -19.2743 -17.5248
rtoes 0.863414
lfemur 11.556 5.07511 -14.5814
ltibia 52.6813
lfoot -32.9481 -2.95585
ltoes -3.67978
1977
root 4.88225 16.8047 -1.56436 -22.1826 -19.6744 -1.01095
lowerback -1.75173 0.30706 -6.40309
upperback 0.2089 0.557526 -1.4323
thorax 1.15237 0.238783 2.12772
lowerneck 0.588777 -0.175163 -7.12824
upperneck 24.7638 -1.82758 8.66165
head 7.58522 -0.897745 3.98738
rclavicle -1.55052e-014 -2.8625e-014
rhumerus 15.6769 20.517 -59.2817
rradius 37.9381
rwrist 14.7801
rhand -23.09 -5.26133
rfingers 7.12502
rthumb 3.35616 -35.2147
lclavicle -1.55052e-014 -2.8625e-014
lhumerus -13.3004 -33.4226 91.2611
lradius 66.5074
lwrist 3.24968
lhand -9.51124 26.2381
lfingers 7.12502
lthumb 16.4543 55.5603
rfemur -12.3271 8.08643 4.75919
rtibia 66.0023
rfoot -20.0067 -17.2662
rtoes -0.0552412
lfemur 11.6407 5.12822 -14.4956
ltibia 53.0703
lfoot -33.5794 -2.79927
ltoes -3.97307
1978
root 4.85241 16.75 -1.53842 -22.2346 -19.6256 -1.07388
lowerback -1.6761 0.290285 -6.34601
upperback 0.254639 0.530055 -1.41885
thorax 1.15974 0.224376 2.10868
lowerneck 0.0418213 -0.223245 -7.16255
upperneck 25.0297 -1.86859 8.63869
head 7.77639 -0.909573 3.99091
rclavicle 3.1408e-014 1.59028e-014
rhumerus 16.0974 20.3547 -59.1143
rradius 38.1626
rwrist 14.8861
rhand -22.9092 -5.41905
rfingers 7.12502
rthumb 3.53074 -35.3696
lclavicle 3.1408e-014 1.59028e-014
lhumerus -13.2378 -33.375 91.2691
lradius 67.3568
lwrist 3.44152
lhand -9.45423 26.0696
lfingers 7.12502
lthumb 16.5092 55.3872
rfemur -12.5982 8.58826 4.9054
rtibia 65.3211
rfoot -20.4363 -17.1821
rtoes -0.459646
lfemur 11.6871 5.24722 -14.2845
ltibia 53.528
lfoot -34.1524 -2.57789
ltoes -4.98363
1979
root 4.82014 16.6973 -1.5133 -22.2309 -19.5327 -1.07332
lowerback -1.69972 0.277278 -6.37245
upperback 0.326098 0.518932 -1.43521
thorax 1.24767 0.214789 2.10669
lowerneck -0.446008 -0.302125 -7.13991
upperneck 25.1778 -1.94512 8.57904
head 7.92115 -0.937396 3.96637
rclavicle 1.66979e-014 -4.05521e-014
rhumerus 16.5599 20.1198 -58.9542
rradius 38.3173
rwrist 14.9332
rhand -23.1025 -5.50768
rfingers 7.12502
rthumb 3.34414 -35.4612
lclavicle 1.66979e-014 -4.05521e-014
lhumerus -13.0186 -33.4588 91.2077
lradius 68.1531
lwrist 3.60924
lhand -9.26246 25.8874
lfingers 7.12502
lthumb 16.6938 55.1895
rfemur -12.9271 9.11477 4.97656
rtibia 64.5969
rfoot -20.6507 -17.1463
rtoes -1.00363
lfemur 11.5735 5.31569 -14.1656
ltibia 54.0716
lfoot -34.7062 -2.56826
ltoes -4.81369
1980
root 4.78966 16.6472 -1.48666 -22.0701 -19.444 -1.29229
lowerback -1.83872 0.241715 -6.13477
upperback 0.293819 0.475851 -1.38844
thorax 1.29727 0.194381 2.02204
lowerneck -0.407129 -0.297991 -7.21924
upperneck 25.1605 -1.95258 8.6644
head 7.90943 -0.94159 4.00857
rclavicle 2.10712e-014 -8.74653e-015
rhumerus 16.8252 20.0312 -58.7471
rradius 38.4915
rwrist 14.8848
rhand -23.3532 -5.6726
rfingers 7.12502
rthumb 3.10196 -35.6298
lclavicle 2.10712e-014 -8.74653e-015
lhumerus -13.0818 -33.6248 91.3285
lradius 69.0068
lwrist 3.83172
lhand -8.81148 25.9923
lfingers 7.12502
lthumb 17.1279 55.2574
rfemur -13.3073 9.57424 5.27884
rtibia 63.8137
rfoot -20.6292 -17.2105
rtoes -2.61158
lfemur 11.3029 5.3014 -13.8626
ltibia 54.71
lfoot -35.3228 -2.44488
ltoes -4.71871
1981
root 4.75971 16.5952 -1.46279 -21.9494 -19.3824 -1.51837
lowerback -1.8706 0.223265 -5.85578
upperback 0.267455 0.446098 -1.35634
thorax 1.29189 0.182324 1.89878
lowerneck -0.375286 -0.287716 -7.2492
upperneck 25.0803 -1.94878 8.74265
head 7.87628 -0.935874 4.03877
rclavicle -6.2816e-014 2.38542e-015
rhumerus 17.0923 19.8906 -58.5703
rradius 38.6118
rwrist 14.8928
rhand -23.574 -5.9891
rfingers 7.12502
rthumb 2.88879 -35.9493
lclavicle -6.2816e-014 2.38542e-015
lhumerus -13.511 -33.3874 91.6635
lradius 70.0117
lwrist 3.78528
lhand -8.34158 26.1371
lfingers 7.12502
lthumb 17.5801 55.3623
rfemur -13.6383 10.1012 5.61852
rtibia 62.9774
rfoot -20.3561 -17.396
rtoes -5.05757
lfemur 11.0424 5.30439 -13.5601
ltibia 55.3979
lfoot -35.9951 -1.9934
ltoes -5.5625
1982
root 4.72641 16.539 -1.44678 -21.8623 -19.309 -1.5938
lowerback -1.93212 0.234497 -5.71101
upperback 0.342603 0.46621 -1.39612
thorax 1.40372 0.189449 1.77826
lowerneck -0.421776 -0.351239 -7.28421
upperneck 24.8279 -2.02329 8.78458
head 7.80671 -0.968591 4.04782
rclavicle 2.50469e-014 -2.14687e-014
rhumerus 17.4757 19.5963 -58.388
rradius 38.7412
rwrist 14.8826
rhand -23.7387 -6.50779
rfingers 7.12502
rthumb 2.72969 -36.4701
lclavicle 2.50469e-014 -2.14687e-014
lhumerus -13.471 -33.479 91.6827
lradius 70.8392
lwrist 3.98677
lhand -8.03531 26.3593
lfingers 7.12502
lthumb 17.8749 55.5578
rfemur -13.9808 10.7947 5.79364
rtibia 62.1364
rfoot -20.1712 -17.3939
rtoes -6.80246
lfemur 10.7079 5.34978 -13.3954
ltibia 56.1148
lfoot -36.5567 -1.58812
ltoes -6.21766
1983
root 4.6905 16.483 -1.43163 -21.874 -19.1929 -1.4861
lowerback -1.95749 0.236621 -5.77182
upperback 0.46991 0.478933 -1.45707
thorax 1.54848 0.189535 1.75032
lowerneck -0.555215 -0.416156 -7.33605
upperneck 24.6196 -2.09417 8.82057
head 7.76774 -0.999626 4.05933
rclavicle 3.53837e-014 1.66979e-014
rhumerus 17.916 19.2887 -58.1655
rradius 38.92
rwrist 15.1118
rhand -24.2421 -7.45811
rfingers 7.12502
rthumb 2.24358 -37.4261
lclavicle 3.53837e-014 1.66979e-014
lhumerus -13.3815 -33.5433 91.6401
lradius 71.6725
lwrist 4.1282
lhand -7.77005 26.4652
lfingers 7.12502
lthumb 18.1301 55.6402
rfemur -14.2423 11.5838 5.74672
rtibia 61.3151
rfoot -20.2036 -17.0471
rtoes -7.23072
lfemur 10.4291 5.33744 -13.4806
ltibia 56.8323
lfoot -36.9834 -1.17166
ltoes -6.80456
1984
root 4.65436 16.4284 -1.41448 -21.9609 -19.1117 -1.44649
lowerback -1.72358 0.220219 -5.85229
upperback 0.611718 0.447574 -1.43306
thorax 1.56494 0.170078 1.81788
lowerneck -1.05279 -0.502928 -7.27561
upperneck 24.5802 -2.15028 8.66666
head 7.84918 -1.02075 3.99194
rclavicle 2.06736e-014 1.51076e-014
rhumerus 18.4627 18.9618 -57.9435
rradius 38.9843
rwrist 15.716
rhand -25.1488 -8.44087
rfingers 7.12502
rthumb 1.36789 -38.4162
lclavicle 2.06736e-014 1.51076e-014
lhumerus -13.4571 -33.2365 91.7997
lradius 72.555
lwrist 4.00228
lhand -7.73246 26.7124
lfingers 7.12502
lthumb 18.1662 55.8841
rfemur -14.3978 12.4108 5.80301
rtibia 60.498
rfoot -20.1739 -16.6718
rtoes -7.61865
lfemur 10.2736 5.29877 -13.4642
ltibia 57.5677
lfoot -37.3675 -0.99135
ltoes -7.07795
